<?xml version="1.0" encoding="UTF-8"?>
<svg xmlns="http://www.w3.org/2000/svg" version="1.1" viewBox="0 0 16 16">
  <defs>
    <style>
      .cls-1 {
        fill: #fcaa67;
      }
    </style>
  </defs>
  <!-- Generator: Adobe Illustrator 28.6.0, SVG Export Plug-In . SVG Version: 1.2.0 Build 709)  -->
  <g>
    <g id="Layer_1">
      <path class="cls-1" d="M0,6c0-1.1.9-2,2-2h12c1.1,0,2,.9,2,2v5c0,1.1-.9,2-2,2H2c-1.1,0-2-.9-2-2v-5ZM13,6.2v.5c0,.1.1.2.2.2h.5c.1,0,.2-.1.2-.2v-.5c0-.1-.1-.2-.2-.2h-.5c-.1,0-.2.1-.2.2M2.2,8c-.1,0-.2.1-.2.2v.5c0,.1.1.2.2.2h.5c.1,0,.2-.1.2-.2v-.5c0-.1-.1-.2-.2-.2h-.5ZM4,8.2v.5c0,.1.1.2.2.2h.5c.1,0,.2-.1.2-.2v-.5c0-.1-.1-.2-.2-.2h-.5c-.1,0-.2.1-.2.2M6.2,8c-.1,0-.2.1-.2.2v.5c0,.1.1.2.2.2h.5c.1,0,.2-.1.2-.2v-.5c0-.1-.1-.2-.2-.2h-.5ZM8,8.2v.5c0,.1.1.2.2.2h.5c.1,0,.2-.1.2-.2v-.5c0-.1-.1-.2-.2-.2h-.5c-.1,0-.2.1-.2.2M13.2,8c-.1,0-.2.1-.2.2v.5c0,.1.1.2.2.2h.5c.1,0,.2-.1.2-.2v-.5c0-.1-.1-.2-.2-.2h-.5ZM13.2,10c-.1,0-.2.1-.2.2v.5c0,.1.1.2.2.2h.5c.1,0,.2-.1.2-.2v-.5c0-.1-.1-.2-.2-.2h-.5ZM10.2,8c-.1,0-.2.1-.2.2v.5c0,.1.1.2.2.2h1.5c.1,0,.2-.1.2-.2v-.5c0-.1-.1-.2-.2-.2h-1.5ZM11,10.2v.5c0,.1.1.2.2.2h.5c.1,0,.2-.1.2-.2v-.5c0-.1-.1-.2-.2-.2h-.5c-.1,0-.2.1-.2.2M11.2,6c-.1,0-.2.1-.2.2v.5c0,.1.1.2.2.2h.5c.1,0,.2-.1.2-.2v-.5c0-.1-.1-.2-.2-.2h-.5ZM9,6.2v.5c0,.1.1.2.2.2h.5c.1,0,.2-.1.2-.2v-.5c0-.1-.1-.2-.2-.2h-.5c-.1,0-.2.1-.2.2M7.2,6c-.1,0-.2.1-.2.2v.5c0,.1.1.2.2.2h.5c.1,0,.2-.1.2-.2v-.5c0-.1-.1-.2-.2-.2h-.5ZM5,6.2v.5c0,.1.1.2.2.2h.5c.1,0,.2-.1.2-.2v-.5c0-.1-.1-.2-.2-.2h-.5c-.1,0-.2.1-.2.2M2.2,6c-.1,0-.2.1-.2.2v.5c0,.1.1.2.2.2h1.5c.1,0,.2-.1.2-.2v-.5c0-.1-.1-.2-.2-.2h-1.5ZM2,10.2v.5c0,.1.1.2.2.2h.5c.1,0,.2-.1.2-.2v-.5c0-.1-.1-.2-.2-.2h-.5c-.1,0-.2.1-.2.2M4.2,10c-.1,0-.2.1-.2.2v.5c0,.1.1.2.2.2h5.5c.1,0,.2-.1.2-.2v-.5c0-.1-.1-.2-.2-.2h-5.5Z"/>
    </g>
  </g>
</svg>