<?xml version="1.0" encoding="UTF-8"?>
<svg xmlns="http://www.w3.org/2000/svg" version="1.1" viewBox="0 0 16 16">
  <defs>
    <style>
      .cls-1, .cls-2 {
        fill: #fcaa67;
      }

      .cls-2 {
        fill-rule: evenodd;
      }
    </style>
  </defs>
  <!-- Generator: Adobe Illustrator 28.6.0, SVG Export Plug-In . SVG Version: 1.2.0 Build 709)  -->
  <g>
    <g id="Layer_1">
      <path class="cls-1" d="M15.5,1.9c.2.2.2.5,0,.7l-1,1-2-2,1-1c.2-.2.5-.2.7,0l1.3,1.3h0ZM13.8,4.4l-2-2-6.8,6.8c0,0,0,.1-.1.2l-.8,2.4c0,.1,0,.3.2.3,0,0,.1,0,.2,0l2.4-.8c0,0,.1,0,.2-.1l6.8-6.8h0Z"/>
      <path class="cls-2" d="M1,13.5c0,.8.7,1.5,1.5,1.5h11c.8,0,1.5-.7,1.5-1.5v-6c0-.3-.2-.5-.5-.5s-.5.2-.5.5v6c0,.3-.2.5-.5.5H2.5c-.3,0-.5-.2-.5-.5V2.5c0-.3.2-.5.5-.5h6.5c.3,0,.5-.2.5-.5s-.2-.5-.5-.5H2.5c-.8,0-1.5.7-1.5,1.5v11Z"/>
    </g>
  </g>
</svg>