<?xml version="1.0" encoding="UTF-8"?>
<svg xmlns="http://www.w3.org/2000/svg" version="1.1" viewBox="0 0 16 16">
  <defs>
    <style>
      .cls-1 {
        fill: #fcaa67;
      }
    </style>
  </defs>
  <!-- Generator: Adobe Illustrator 28.6.0, SVG Export Plug-In . SVG Version: 1.2.0 Build 709)  -->
  <g>
    <g id="Layer_1">
      <path class="cls-1" d="M11,2.5C11,1.1,12.1,0,13.5,0c1.4,0,2.5,1.1,2.5,2.5,0,1.4-1.1,2.5-2.5,2.5-.7,0-1.4-.3-1.9-.9l-6.7,3.1c.2.5.2,1,0,1.5l6.7,3.1c.9-1,2.5-1.2,3.5-.3s1.2,2.5.3,3.5c-.9,1-2.5,1.2-3.5.3-.8-.7-1.1-1.7-.8-2.6l-6.7-3.1c-.9,1-2.5,1.2-3.5.3-1-.9-1.2-2.5-.3-3.5.9-1,2.5-1.2,3.5-.3,0,0,.2.2.3.3l6.7-3.1c0-.2-.1-.5-.1-.8"/>
    </g>
  </g>
</svg>